<svg width="301" height="301" viewBox="0 0 301 301" fill="none" xmlns="http://www.w3.org/2000/svg">
<circle cx="150.5" cy="150.5" r="150.5" fill="#00A1FF"/>
<path d="M129.221 189.997C119.997 185.874 114.038 176.778 114.038 166.825V116.915C121.417 113.317 127.429 107.359 131.07 100.037H170.544C174.185 107.359 180.197 113.317 187.577 116.915V166.825C187.577 176.778 181.617 185.874 172.394 189.997L150.807 199.647L129.221 189.997Z" fill="#FFF7D6"/>
<path d="M203.893 101.631C193.892 101.631 185.755 93.5957 185.755 83.7195C185.755 82.2175 184.538 81 183.036 81H118.577C117.075 81 115.858 82.2175 115.858 83.7195C115.858 93.5957 107.721 101.631 97.7195 101.631C96.2175 101.631 95 102.849 95 104.35V166.825C95 184.276 105.383 200.194 121.451 207.376L149.696 220.002C150.049 220.16 150.428 220.239 150.806 220.239C151.184 220.239 151.563 220.16 151.916 220.002L180.161 207.376C196.23 200.194 206.612 184.276 206.612 166.825V104.35C206.613 102.849 205.395 101.631 203.893 101.631V101.631ZM201.174 166.825C201.174 182.134 192.055 196.102 177.942 202.411L150.806 214.541L123.671 202.411C109.558 196.102 100.439 182.134 100.439 166.825V106.916C111.262 105.679 119.878 97.1548 121.138 86.439H180.475C181.735 97.1548 190.35 105.679 201.174 106.916V166.825H201.174Z" fill="#031926"/>
<path d="M150.807 122.49C135.524 122.49 123.091 134.924 123.091 150.206C123.091 165.489 135.524 177.922 150.807 177.922C166.089 177.922 178.523 165.489 178.523 150.206C178.523 134.924 166.089 122.49 150.807 122.49V122.49ZM150.807 172.483C138.523 172.483 128.53 162.49 128.53 150.206C128.53 137.923 138.523 127.93 150.807 127.93C163.09 127.93 173.084 137.923 173.084 150.206C173.084 162.49 163.09 172.483 150.807 172.483Z" fill="#031926"/>
<path d="M153.928 147.831C153.678 147.743 153.436 147.657 153.203 147.573V141.548C153.612 141.754 153.905 142.001 154.07 142.235C154.933 143.465 156.629 143.762 157.859 142.899C159.088 142.036 159.385 140.34 158.522 139.111C157.47 137.61 155.614 136.343 153.203 135.848V135.798C153.203 134.296 151.986 133.078 150.484 133.078C148.982 133.078 147.764 134.296 147.764 135.798V136.036C147.544 136.092 147.321 136.153 147.097 136.221C144.122 137.117 141.876 140.001 141.636 143.234C141.399 146.441 143.099 149.225 146.185 150.68C146.547 150.851 147.087 151.078 147.764 151.347V158.816C146.966 158.495 146.266 158.045 145.793 157.458C144.851 156.288 143.139 156.104 141.969 157.046C140.8 157.988 140.615 159.7 141.557 160.87C143.16 162.859 145.473 163.973 147.766 164.492C147.815 165.951 149.013 167.118 150.483 167.118C151.887 167.118 153.042 166.055 153.187 164.691C157.263 164.01 160.129 161.331 160.594 157.67C161.13 153.454 158.388 149.407 153.928 147.831V147.831ZM147.06 143.636C147.105 143.03 147.374 142.445 147.764 142.02V145.3C147.242 144.863 147.01 144.313 147.06 143.636V143.636ZM155.199 156.985C155.072 157.979 154.365 158.716 153.203 159.108V153.47C154.753 154.411 155.341 155.864 155.199 156.985Z" fill="#031926"/>
</svg>
